<?xml version="1.0" encoding="UTF-8" standalone="no"?>
<!DOCTYPE svg PUBLIC "-//W3C//DTD SVG 20010904//EN"
 "http://www.w3.org/TR/2001/REC-SVG-20010904/DTD/svg10.dtd">
<svg version="1.0" xmlns="http://www.w3.org/2000/svg"
 width="456" height="456" viewBox="0 0 456 456"
 preserveAspectRatio="xMidYMid meet">

	<g transform="translate(0.000000,500.000000) scale(0.100000,-0.100000)"
	fill="#000000" stroke="none">
		<path d="M0 2500 l0 -2500 2500 0 2500 0 0 2500 0 2500 -2500 0 -2500 0 0
-2500z m2140 855 c205 -47 374 -85 376 -85 3 0 1 -24 -2 -54 -6 -52 -6 -54 32
-89 22 -20 42 -37 47 -37 4 0 4 65 0 145 l-6 145 46 0 46 0 3 -72 3 -73 35 -3
c66 -5 77 -12 135 -79 l58 -68 -74 -17 -73 -17 -182 -182 -182 -182 -29 34
c-17 19 -153 178 -303 354 -150 176 -282 330 -293 343 -11 12 -18 22 -15 22 3
0 173 -38 378 -85z m-385 -19 l40 -34 -35 -44 c-19 -24 -127 -162 -240 -306
l-205 -262 -72 0 c-40 0 -73 3 -73 6 0 8 532 674 539 674 3 0 24 -15 46 -34z
m1355 -32 l114 -16 68 -61 c47 -41 65 -63 56 -67 -7 -4 -52 -15 -100 -25 -72
-15 -90 -16 -103 -5 -42 35 -175 190 -163 190 8 0 65 -7 128 -16z m-159 -25
c19 -9 17 -13 -23 -58 -39 -45 -44 -48 -60 -34 -16 14 -15 18 20 59 42 50 38
47 63 33z m39 -89 c0 -5 -4 -10 -10 -10 -5 0 -10 5 -10 10 0 6 5 10 10 10 6 0
10 -4 10 -10z m0 -30 c0 -5 -4 -10 -10 -10 -5 0 -10 5 -10 10 0 6 5 10 10 10
6 0 10 -4 10 -10z m458 -38 c-1 -5 -82 -104 -178 -220 l-175 -211 -284 0 -283
-1 61 68 c33 37 101 110 149 162 l89 95 294 57 c310 60 333 63 327 50z m236
-257 c80 -99 146 -183 146 -187 0 -5 -32 -8 -71 -8 -70 0 -71 0 -67 25 4 19
-18 53 -113 171 -66 80 -119 148 -119 151 0 3 10 17 23 33 27 35 13 48 201
-185z m-1766 113 c3 -37 3 -38 -32 -38 -35 0 -36 1 -36 41 0 39 1 40 33 37 29
-3 32 -6 35 -40z m-88 -8 c0 -28 -2 -30 -40 -30 -38 0 -40 2 -40 30 0 28 2 30
40 30 38 0 40 -2 40 -30z m0 -90 l0 -40 -40 0 -40 0 0 40 0 40 40 0 40 0 0
-40z m88 -2 c3 -37 3 -38 -32 -38 -35 0 -36 1 -36 41 0 39 1 40 33 37 29 -3
32 -6 35 -40z m1562 -38 c0 -17 -7 -20 -45 -20 -38 0 -45 3 -45 20 0 17 7 20
45 20 38 0 45 -3 45 -20z m-2 -47 c2 -9 -10 -13 -42 -13 -35 0 -46 4 -46 16 0
12 9 14 42 12 23 -2 43 -9 46 -15z m-2918 -573 l0 -71 58 3 57 3 3 68 3 68 32
-3 32 -3 3 -167 2 -168 -35 0 -35 0 0 70 0 70 -60 0 -60 0 0 -70 0 -70 -35 0
-35 0 0 170 0 170 35 0 35 0 0 -70z m608 41 c44 -31 65 -75 65 -136 0 -182
-234 -250 -322 -95 -45 81 -10 203 70 244 49 24 144 18 187 -13z m272 -93 c0
-99 3 -125 17 -140 22 -25 79 -24 93 1 5 11 10 74 10 140 l0 121 35 0 35 0 0
-127 c0 -111 -3 -132 -20 -161 -41 -67 -141 -78 -204 -22 l-31 28 -3 141 -4
141 36 0 36 0 0 -122z m531 112 c13 -8 19 -21 19 -46 l0 -35 -31 16 c-16 9
-47 15 -67 13 -32 -3 -37 -7 -40 -30 -3 -23 2 -28 35 -37 21 -6 44 -11 51 -11
29 0 73 -36 81 -65 26 -98 -73 -167 -189 -133 -44 13 -45 15 -48 57 l-3 43 27
-21 c30 -24 121 -30 142 -9 31 31 -2 68 -60 68 -36 0 -86 31 -98 61 -19 45 -5
96 33 119 35 22 115 27 148 10z m379 -22 l0 -33 -57 0 -58 0 -3 -32 -3 -33 50
0 c50 0 51 -1 51 -30 0 -29 -1 -30 -50 -30 l-50 0 0 -45 0 -45 65 0 65 0 0
-30 0 -30 -95 0 -95 0 0 170 0 170 90 0 90 0 0 -32z m304 22 c14 -5 33 -21 42
-35 14 -22 15 -32 6 -62 -10 -32 -9 -37 15 -57 22 -19 26 -31 26 -70 -2 -86
-46 -110 -195 -107 l-48 1 0 170 0 170 64 0 c36 0 76 -4 90 -10z m286 -110 c0
-115 1 -122 25 -145 31 -31 49 -31 80 0 24 23 25 30 25 145 l0 120 35 0 35 0
0 -107 c0 -130 -11 -174 -51 -207 -25 -21 -41 -26 -86 -26 -49 0 -59 4 -89 34
l-34 34 0 136 0 136 30 0 30 0 0 -120z m430 -50 l0 -170 -30 0 -30 0 0 170 0
170 30 0 30 0 0 -170z m366 144 c72 -53 94 -142 56 -227 -30 -68 -83 -91 -204
-88 l-38 1 0 171 0 171 79 -3 c61 -3 86 -9 107 -25z m406 -4 c-4 -29 -6 -30
-58 -30 l-54 0 0 -35 c0 -35 0 -35 45 -35 43 0 45 -1 45 -30 0 -29 -2 -30 -45
-30 l-45 0 0 -45 0 -45 60 0 60 0 0 -30 0 -30 -95 0 -95 0 0 170 0 170 93 0
94 0 -5 -30z m317 19 c33 -12 61 -52 61 -89 0 -26 -27 -80 -40 -80 -17 0 -11
-29 20 -90 17 -33 30 -62 30 -65 0 -3 -15 -5 -34 -5 -32 0 -35 3 -62 65 -23
53 -33 65 -51 65 -22 0 -23 -4 -23 -65 l0 -65 -35 0 -35 0 0 163 c0 90 3 167
7 170 10 11 127 8 162 -4z"/>
		<path d="M1013 2218 c-26 -12 -53 -65 -53 -103 0 -34 25 -82 49 -95 27 -14 92
-12 112 3 26 20 39 53 39 102 0 82 -74 129 -147 93z"/>
		<path d="M2560 2200 l0 -41 38 3 c35 3 37 5 37 38 0 33 -2 35 -37 38 l-38 3 0
-41z"/>
		<path d="M2572 2102 c-9 -6 -12 -25 -10 -53 3 -43 4 -44 41 -47 26 -2 45 2 58
14 22 20 25 57 5 73 -19 16 -78 24 -94 13z"/>
		<path d="M3610 2114 l0 -117 42 6 c62 8 88 42 88 113 0 48 -4 60 -29 85 -22
21 -39 29 -65 29 l-36 0 0 -116z"/>
		<path d="M4360 2180 c0 -49 1 -50 30 -50 29 0 70 29 70 51 0 31 -22 49 -60 49
l-40 0 0 -50z"/>
	</g>
</svg>